<svg xmlns="http://www.w3.org/2000/svg" viewBox="0 0 100 100"><circle cx="50" cy="50" r="48" fill="#f0f4e8" stroke="#2d5016" stroke-width="2"/><path fill="none" stroke="#c0956d" stroke-linecap="round" stroke-width="3" d="M 45 35 Q 45 25 55 25 Q 65 25 65 35 Q 65 45 55 45 Q 50 45 50 40"/><path fill="none" stroke="#d4a574" stroke-linecap="round" stroke-width="2" d="M 45 40 Q 45 32 53 32 Q 60 32 60 38 Q 60 42 53 42 Q 50 42 50 39"/><ellipse cx="45" cy="55" fill="#8b9d6f" rx="12" ry="15"/><circle cx="45" cy="68" r="8" fill="#8b9d6f"/><line x1="42" x2="40" y1="68" y2="62" stroke="#2d5016" stroke-linecap="round" stroke-width="1.5"/><circle cx="40" cy="61" r="1.5" fill="#2d5016"/><line x1="48" x2="50" y1="68" y2="62" stroke="#2d5016" stroke-linecap="round" stroke-width="1.5"/><circle cx="50" cy="61" r="1.5" fill="#2d5016"/><path fill="none" stroke="#2d5016" stroke-linecap="round" stroke-width="1" d="M 44 71 Q 45 72 46 71"/><ellipse cx="35" cy="72" fill="#d4e8c1" opacity=".7" rx="4" ry="3"/><ellipse cx="28" cy="71" fill="#d4e8c1" opacity=".5" rx="3" ry="2.5"/></svg>