<svg xmlns="http://www.w3.org/2000/svg" viewBox="0 0 1200 630"><defs><linearGradient id="bgGradient" x1="0%" x2="100%" y1="0%" y2="100%"><stop offset="0%" style="stop-color:#f0f4e8;stop-opacity:1"/><stop offset="100%" style="stop-color:#e8ede4;stop-opacity:1"/></linearGradient></defs><rect width="1200" height="630" fill="url(#bgGradient)"/><g opacity=".15"><g transform="translate(150, 150)"><path fill="none" stroke="#2d5016" stroke-linecap="round" stroke-width="2" d="M 30 20 Q 30 10 40 10 Q 50 10 50 20 Q 50 30 40 30 Q 35 30 35 25"/><ellipse cx="30" cy="40" fill="#8b9d6f" rx="8" ry="10"/><circle cx="30" cy="48" r="5" fill="#8b9d6f"/></g><g transform="translate(1000, 450) scale(-1, 1)"><path fill="none" stroke="#2d5016" stroke-linecap="round" stroke-width="2" d="M 30 20 Q 30 10 40 10 Q 50 10 50 20 Q 50 30 40 30 Q 35 30 35 25"/><ellipse cx="30" cy="40" fill="#8b9d6f" rx="8" ry="10"/><circle cx="30" cy="48" r="5" fill="#8b9d6f"/></g></g><g><g transform="translate(100, 180)"><path fill="none" stroke="#c0956d" stroke-linecap="round" stroke-width="4" d="M 45 35 Q 45 25 55 25 Q 65 25 65 35 Q 65 45 55 45 Q 50 45 50 40"/><path fill="none" stroke="#d4a574" stroke-linecap="round" stroke-width="2.5" d="M 45 40 Q 45 32 53 32 Q 60 32 60 38 Q 60 42 53 42 Q 50 42 50 39"/><ellipse cx="45" cy="55" fill="#8b9d6f" rx="12" ry="15"/><circle cx="45" cy="68" r="8" fill="#8b9d6f"/><line x1="42" x2="40" y1="68" y2="62" stroke="#2d5016" stroke-linecap="round" stroke-width="2"/><circle cx="40" cy="61" r="2" fill="#2d5016"/><line x1="48" x2="50" y1="68" y2="62" stroke="#2d5016" stroke-linecap="round" stroke-width="2"/><circle cx="50" cy="61" r="2" fill="#2d5016"/><ellipse cx="35" cy="72" fill="#d4e8c1" opacity=".7" rx="4" ry="3"/><ellipse cx="28" cy="71" fill="#d4e8c1" opacity=".5" rx="3" ry="2.5"/></g><text x="380" y="200" fill="#2d5016" font-family="Arial, sans-serif" font-size="72" font-weight="700">Snail&apos;s Trail</text><text x="380" y="280" fill="#5a7c3e" font-family="Arial, sans-serif" font-size="40" font-weight="500">Daily Wikipedia Navigation</text><text x="380" y="350" fill="#6b8e4f" font-family="Arial, sans-serif" font-size="32">Hop between articles to reach the target</text><text x="380" y="400" fill="#6b8e4f" font-family="Arial, sans-serif" font-size="32">Wordle meets WikiGame</text></g><rect width="1200" height="30" x="0" y="600" fill="#2d5016" opacity=".1"/></svg>