<?xml version="1.0" standalone="no"?>
<!DOCTYPE svg PUBLIC "-//W3C//DTD SVG 20010904//EN"
 "http://www.w3.org/TR/2001/REC-SVG-20010904/DTD/svg10.dtd">
<svg version="1.0" xmlns="http://www.w3.org/2000/svg"
 width="260.000000pt" height="260.000000pt" viewBox="0 0 260.000000 260.000000"
 preserveAspectRatio="xMidYMid meet">
<metadata>
Created by potrace 1.14, written by Peter Selinger 2001-2017
</metadata>
<g transform="translate(0.000000,260.000000) scale(0.100000,-0.100000)"
fill="#000000" stroke="none">
<path d="M1043 2583 c0 -7 5 -9 10 -6 6 3 7 1 3 -5 -4 -7 -14 -12 -22 -12 -8
0 -12 5 -9 10 3 6 1 10 -4 10 -6 0 -11 -6 -11 -14 0 -15 -16 -16 -39 -2 -8 5
-12 5 -9 0 3 -5 -1 -15 -9 -23 -13 -12 -14 -11 -8 10 4 15 3 19 -3 11 -5 -7
-17 -10 -28 -6 -14 4 -15 3 -5 -4 9 -7 10 -12 2 -16 -6 -4 -11 -4 -11 0 0 4
-7 -1 -16 -12 -15 -18 -15 -18 -10 0 5 15 4 17 -7 8 -8 -7 -18 -8 -22 -4 -5 4
-4 1 0 -7 6 -11 4 -13 -8 -8 -16 6 -22 -3 -18 -26 1 -5 -4 -5 -10 -1 -6 3 -15
1 -19 -6 -5 -9 -9 -9 -14 -1 -4 6 -2 11 3 11 6 0 11 5 11 12 0 6 -8 4 -19 -6
-12 -11 -25 -15 -33 -10 -10 6 -10 4 1 -9 12 -15 12 -17 -4 -11 -12 5 -16 4
-12 -3 4 -6 -3 -9 -16 -8 -13 1 -33 -10 -47 -25 -14 -14 -21 -20 -16 -13 6 10
4 12 -8 7 -9 -3 -16 -12 -16 -20 0 -8 -6 -11 -17 -7 -11 4 -14 3 -9 -5 4 -7 2
-12 -4 -12 -6 0 -8 -5 -4 -12 4 -7 3 -8 -5 -4 -6 4 -8 13 -4 19 5 8 2 8 -9 0
-8 -7 -18 -10 -22 -6 -4 4 -4 0 -1 -8 3 -9 -2 -22 -12 -30 -17 -13 -17 -13 -4
6 8 11 1 7 -15 -10 -17 -16 -28 -34 -25 -40 3 -5 -4 -3 -14 5 -10 8 -16 10
-12 4 4 -7 0 -15 -8 -18 -8 -3 -14 -10 -13 -15 2 -5 -1 -8 -5 -7 -5 0 -13 -7
-18 -17 -6 -9 -14 -15 -20 -12 -5 4 -9 1 -9 -5 0 -6 -5 -8 -12 -4 -9 5 -8 2 1
-9 12 -15 12 -17 -4 -11 -14 6 -16 4 -10 -6 6 -10 4 -12 -8 -7 -11 4 -15 1
-12 -13 3 -13 -1 -17 -11 -13 -9 3 -14 0 -12 -8 2 -7 -4 -13 -12 -14 -9 0 -15
-9 -14 -22 1 -14 -3 -20 -12 -16 -9 3 -14 -2 -14 -17 0 -14 -4 -19 -12 -14 -7
5 -9 2 -5 -9 4 -12 2 -14 -11 -10 -9 3 -14 3 -10 -1 4 -5 -5 -19 -19 -32 -14
-13 -22 -24 -17 -24 5 0 0 -8 -11 -17 -16 -12 -16 -14 -3 -10 10 3 20 2 23 -4
4 -5 1 -8 -6 -7 -7 2 -13 -3 -14 -10 0 -8 -7 -19 -16 -25 -9 -7 -18 -16 -20
-22 -2 -5 -7 -9 -10 -8 -4 1 -6 -11 -5 -27 2 -22 -1 -27 -10 -19 -9 8 -11 5
-7 -12 4 -15 3 -20 -5 -15 -7 4 -12 1 -12 -9 0 -10 -5 -13 -12 -9 -7 4 -8 3
-4 -5 6 -9 12 -9 24 1 15 11 15 11 5 -3 -7 -9 -11 -18 -8 -21 3 -3 -3 -11 -12
-19 -16 -13 -17 -12 -4 4 7 9 9 17 5 17 -17 0 -35 -38 -22 -46 7 -5 8 -3 3 6
-5 9 -4 11 4 6 9 -6 9 -11 1 -21 -7 -8 -8 -20 -4 -27 5 -8 1 -8 -11 2 -17 14
-18 14 -7 -7 9 -16 9 -24 0 -29 -6 -4 -8 -3 -4 4 3 6 2 13 -3 16 -11 7 -9 -13
3 -33 6 -10 5 -12 -2 -7 -7 4 -12 2 -12 -4 0 -6 -5 -8 -12 -4 -7 4 -8 3 -4 -5
4 -6 11 -9 15 -7 4 3 8 -1 8 -9 0 -8 -4 -12 -9 -9 -4 3 -8 -2 -8 -11 0 -10 5
-14 13 -10 6 4 4 0 -5 -8 -16 -13 -16 -15 0 -32 16 -18 16 -18 -1 -5 -16 12
-18 11 -13 -14 3 -15 1 -24 -5 -21 -5 4 -7 10 -4 15 3 5 1 11 -3 14 -5 3 -9
-103 -9 -234 0 -212 2 -238 15 -227 13 10 14 9 3 -11 -10 -20 -9 -23 11 -32
13 -5 18 -9 13 -9 -6 -1 -16 -11 -24 -24 -12 -19 -12 -20 0 -10 12 10 17 8 28
-8 10 -18 10 -23 -6 -35 -10 -8 -13 -13 -8 -12 6 2 11 -1 13 -7 2 -5 13 -15
25 -22 12 -7 16 -12 10 -13 -7 0 -13 -7 -13 -16 0 -9 5 -12 13 -8 7 5 6 0 -3
-11 -13 -17 -13 -18 1 -13 9 4 16 1 16 -7 0 -8 -7 -11 -16 -8 -11 4 -10 1 3
-9 10 -8 16 -20 12 -26 -3 -6 3 -14 15 -17 11 -4 18 -9 15 -12 -3 -4 0 -13 7
-21 9 -13 9 -14 0 -8 -9 5 -11 2 -7 -7 3 -8 13 -17 23 -20 18 -4 25 -37 9 -37
-5 0 -7 -4 -3 -10 3 -5 13 -6 21 -3 14 5 15 3 4 -17 -8 -15 -8 -20 -1 -16 6 4
11 2 11 -4 0 -6 5 -8 12 -4 8 5 9 2 5 -9 -4 -12 -1 -17 10 -17 13 0 14 -2 2
-17 -8 -9 -9 -14 -3 -10 6 3 16 -3 24 -13 8 -10 17 -17 22 -14 4 3 6 -1 3 -8
-3 -7 0 -20 5 -28 9 -13 11 -13 21 0 9 13 10 12 5 -2 -3 -10 -1 -18 4 -18 6 0
10 -9 10 -20 0 -14 5 -18 17 -13 10 4 14 2 10 -4 -4 -6 -1 -14 5 -16 10 -4 9
-8 -2 -16 -12 -8 -9 -12 18 -17 18 -4 32 -13 32 -21 0 -8 9 -17 20 -20 11 -3
20 -10 20 -15 0 -5 4 -7 9 -3 5 3 13 0 17 -6 4 -7 3 -9 -4 -5 -6 3 -14 2 -17
-4 -4 -6 -3 -10 2 -9 22 4 34 -2 27 -14 -5 -7 -2 -7 10 2 9 8 16 10 15 5 -1
-5 -1 -16 0 -24 1 -13 2 -13 12 0 9 12 10 11 6 -8 -3 -12 -1 -20 3 -17 15 9
41 -7 36 -22 -4 -10 -1 -11 13 -4 19 11 31 5 31 -13 0 -6 -5 -4 -11 4 -9 13
-10 13 -6 0 2 -8 12 -14 22 -12 10 2 14 -1 10 -7 -3 -6 1 -11 10 -11 10 0 13
5 9 12 -4 6 -3 8 4 4 6 -3 9 -16 7 -28 -3 -16 -2 -19 6 -11 14 14 41 5 32 -11
-4 -6 0 -6 9 2 13 10 18 10 24 1 4 -8 3 -9 -4 -5 -8 5 -10 2 -6 -9 5 -13 9
-13 22 -3 12 10 14 10 8 1 -4 -8 -1 -13 9 -13 10 0 13 -5 9 -12 -5 -9 -2 -9 9
1 11 9 17 10 17 2 0 -6 7 -11 16 -11 9 0 12 -5 8 -12 -6 -10 -4 -10 7 0 19 17
34 15 19 -3 -7 -9 -10 -18 -6 -22 3 -3 6 -1 6 5 0 16 21 11 38 -8 12 -13 13
-12 7 4 -6 19 -5 19 14 2 10 -10 27 -19 36 -20 9 -1 21 -9 27 -17 8 -12 9 -11
5 2 -3 9 1 16 8 16 8 0 14 -3 13 -6 -2 -19 4 -24 12 -11 8 13 10 12 10 -4 0
-19 0 -19 13 -1 10 13 16 15 21 6 6 -9 11 -9 24 1 9 8 13 8 9 2 -10 -17 18
-25 34 -11 11 10 11 9 0 -5 -10 -13 -18 -15 -31 -8 -13 7 -21 7 -25 0 -8 -13
-13 -12 73 -15 54 -3 71 -1 65 8 -5 9 -3 9 8 0 17 -14 351 -14 365 -1 4 4 1
16 -7 25 -12 16 -12 17 2 6 12 -10 18 -10 29 0 8 8 11 8 7 1 -4 -7 0 -15 9
-18 8 -3 13 -2 10 3 -3 5 6 12 22 17 40 11 45 11 64 2 13 -6 16 -5 12 7 -4 8
-11 15 -17 15 -6 0 -7 3 -4 6 4 4 13 1 22 -6 8 -7 15 -8 15 -2 0 16 33 24 42
10 7 -10 11 -9 22 4 10 14 15 15 25 5 10 -9 11 -8 5 7 -6 16 -4 18 9 13 12 -4
17 -1 17 11 0 15 2 15 10 2 7 -11 10 -11 10 -2 0 7 5 10 10 7 6 -3 10 1 10 10
0 9 5 13 10 10 6 -4 7 -11 4 -17 -4 -7 -2 -8 4 -4 6 4 9 13 6 20 -3 8 0 17 7
22 8 4 10 3 5 -4 -4 -7 -2 -12 3 -12 6 0 11 6 11 13 0 8 4 7 10 -3 8 -13 10
-13 10 2 0 9 5 20 12 24 7 4 8 3 4 -4 -4 -7 -2 -12 3 -12 6 0 11 7 11 15 0 9
6 12 17 8 12 -5 14 -3 8 7 -6 10 -4 12 9 7 11 -5 15 -3 10 5 -5 8 -2 9 11 4
16 -6 16 -4 4 10 -13 16 -12 16 11 4 24 -13 24 -12 10 5 -9 11 -10 16 -2 11 6
-4 12 -3 12 3 0 6 8 7 18 4 15 -6 16 -5 2 12 -14 17 -13 17 9 10 20 -6 23 -5
17 10 -5 15 -4 16 9 5 12 -10 15 -9 16 6 1 11 1 23 0 28 -1 5 6 3 15 -5 10 -8
15 -9 11 -3 -9 15 48 68 66 61 7 -3 14 1 14 8 0 7 -7 11 -16 8 -9 -2 -7 1 4 8
11 7 26 20 33 28 10 14 11 13 6 -4 l-7 -20 16 20 c9 11 17 31 17 45 0 20 2 22
10 10 9 -14 14 -7 11 13 -1 5 8 11 19 14 11 3 20 10 20 15 0 5 -5 6 -12 2 -7
-4 -8 -3 -4 4 4 7 14 12 22 12 8 0 13 3 12 8 -5 18 15 52 30 52 15 0 15 2 2
10 -10 6 -11 10 -2 10 6 0 12 8 12 18 0 15 2 15 11 2 8 -12 10 -9 6 13 -4 23
-2 25 10 15 8 -6 13 -7 12 -2 -4 23 2 46 19 62 22 24 26 43 10 53 -9 6 -5 9
12 9 24 1 24 1 6 15 -24 18 -13 20 17 3 20 -10 21 -10 8 5 -11 14 -11 20 0 34
12 14 12 16 -1 9 -8 -4 -7 -1 3 7 10 9 19 21 21 29 1 7 5 20 10 28 7 12 7 13
-5 2 -8 -7 -14 -18 -14 -24 0 -6 -7 -13 -15 -15 -12 -4 -12 -3 -2 5 8 5 13 12
12 16 -2 11 15 33 30 39 12 4 11 6 -3 6 -10 1 -15 6 -12 11 4 6 10 8 14 6 4
-3 8 1 8 9 0 8 -3 12 -7 10 -4 -2 -7 3 -7 11 0 9 6 13 14 10 8 -3 12 -2 8 3
-3 5 -2 11 2 14 5 2 3 2 -4 1 -7 -2 -15 2 -19 8 -4 7 -3 8 4 4 7 -4 12 -1 12
10 0 12 3 14 13 6 9 -8 12 -3 12 21 0 18 -4 38 -9 46 -6 10 -5 12 2 7 8 -5 11
42 11 166 0 122 -4 175 -12 180 -9 6 -9 8 1 8 6 0 12 5 12 11 0 5 -5 7 -12 3
-7 -5 -8 -3 -2 7 13 21 15 47 4 54 -5 3 -7 13 -4 23 5 14 4 14 -4 2 -6 -8 -8
-18 -6 -22 3 -4 0 -8 -6 -8 -7 0 -9 8 -5 21 4 13 3 19 -2 16 -12 -7 -10 23 2
42 5 9 4 12 -2 8 -14 -9 -26 19 -28 66 -1 22 -8 42 -15 47 -7 4 -10 15 -7 24
3 8 1 18 -5 22 -6 4 -8 3 -4 -4 3 -6 2 -13 -3 -16 -5 -3 -8 9 -7 28 1 25 -2
32 -13 28 -11 -4 -11 -1 -1 19 12 22 12 23 -3 11 -13 -11 -15 -10 -10 7 4 16
1 21 -13 21 -16 0 -17 2 -4 10 12 8 12 10 -5 10 -17 0 -17 2 -5 10 11 7 11 10
2 10 -7 0 -12 7 -10 16 2 10 -4 19 -12 21 -13 4 -13 3 0 -6 8 -6 10 -11 4 -11
-18 0 -24 12 -13 26 7 8 6 14 -2 20 -8 5 -9 3 -4 -6 6 -9 4 -11 -4 -6 -7 5
-10 15 -6 23 4 13 3 14 -10 3 -13 -11 -14 -10 -9 4 3 9 1 16 -4 16 -6 0 -9 9
-7 19 2 11 -3 22 -11 25 -9 3 -12 11 -8 17 4 8 3 9 -5 5 -9 -6 -9 -11 -1 -21
8 -10 8 -15 -1 -21 -7 -4 -9 -3 -5 4 3 6 2 13 -4 17 -6 4 -8 11 -5 16 4 5 1 9
-4 9 -6 0 -11 7 -11 16 0 9 -6 14 -13 11 -10 -4 -13 2 -9 19 2 13 0 24 -7 24
-5 0 -9 -6 -7 -12 1 -7 1 -10 -1 -5 -3 4 -9 4 -15 1 -5 -4 -5 4 2 16 8 15 8
20 1 16 -6 -4 -11 -2 -11 4 0 7 -7 10 -15 7 -8 -4 -17 -1 -21 5 -4 7 -3 8 4 4
7 -4 12 -3 12 3 0 5 -9 12 -19 16 -11 3 -25 13 -33 23 -12 16 -11 16 7 2 19
-14 19 -14 6 3 -8 10 -20 16 -27 13 -7 -3 -16 0 -20 6 -5 7 -2 8 6 3 9 -5 11
-4 6 3 -4 7 -17 12 -29 12 -18 0 -19 2 -7 10 13 8 13 11 1 22 -10 10 -12 10
-7 1 4 -7 2 -13 -3 -13 -10 0 -15 14 -12 33 1 5 -3 6 -9 2 -6 -3 -7 -11 -4
-17 5 -7 2 -8 -5 -4 -7 5 -10 14 -7 21 3 9 -2 12 -14 10 -14 -3 -17 1 -13 12
4 11 2 14 -5 9 -7 -4 -12 -2 -12 3 0 6 -6 10 -12 8 -7 -1 -12 4 -10 12 3 12 0
12 -12 2 -10 -8 -16 -9 -21 -1 -3 6 -11 7 -17 4 -7 -4 -8 -2 -4 5 6 9 11 9 22
0 10 -8 14 -8 14 0 0 11 -9 14 -42 14 -9 0 -14 5 -12 11 3 7 -5 13 -16 14 -11
1 -29 3 -39 4 -11 1 -19 5 -19 8 2 18 -3 30 -13 30 -5 0 -7 -4 -4 -10 3 -5 1
-10 -4 -10 -6 0 -11 9 -11 21 0 11 -5 17 -10 14 -6 -4 -8 -11 -5 -16 3 -5 -1
-6 -10 -3 -9 4 -14 12 -11 19 3 8 -2 11 -15 8 -10 -3 -25 -1 -32 4 -20 16 -49
24 -41 12 4 -7 -3 -6 -17 2 -13 7 -24 12 -24 11 0 -1 -10 1 -23 5 -16 4 -21
11 -18 22 4 11 2 10 -9 -3 -13 -17 -19 -16 -17 5 1 3 -12 3 -29 1 -16 -2 -29
-9 -29 -15 0 -6 -3 -7 -6 -4 -4 4 -1 13 6 22 7 8 9 15 4 16 -5 0 -17 2 -27 4
-9 2 -15 -1 -11 -6 3 -5 10 -6 16 -3 7 4 8 2 4 -4 -9 -15 -11 -15 -31 5 -14
14 -18 14 -26 2 -6 -10 -9 -10 -9 -2 0 10 -47 12 -208 10 -155 -1 -209 -5
-209 -14z m407 -3 c0 -5 -2 -10 -4 -10 -3 0 -8 5 -11 10 -3 6 -1 10 4 10 6 0
11 -4 11 -10z m1137 -1049 c-1 -19 -20 -22 -34 -6 -4 4 -3 5 3 2 7 -4 14 0 18
8 8 21 15 19 13 -4z m-2543 -479 c3 -5 -1 -9 -9 -9 -8 0 -12 4 -9 9 3 4 7 8 9
8 2 0 6 -4 9 -8z m333 -648 c-3 -3 -12 -4 -19 -1 -8 3 -5 6 6 6 11 1 17 -2 13
-5z m1157 -382 c3 -5 -1 -9 -9 -9 -8 0 -15 4 -15 9 0 10 17 10 24 0z"/>
<path d="M1656 2561 c-4 -6 -6 -11 -4 -12 25 -6 38 -5 49 3 11 8 11 9 -2 5 -9
-3 -21 -1 -27 5 -6 6 -12 6 -16 -1z"/>
<path d="M420 2281 c0 -6 4 -13 10 -16 6 -3 7 1 4 9 -7 18 -14 21 -14 7z"/>
<path d="M155 1940 c-3 -5 -2 -10 4 -10 5 0 13 5 16 10 3 6 2 10 -4 10 -5 0
-13 -4 -16 -10z"/>
<path d="M2547 1676 c-3 -8 -2 -18 3 -21 13 -8 20 9 11 24 -6 10 -10 9 -14 -3z"/>
<path d="M2193 358 c-15 -20 -25 -38 -20 -38 3 0 12 11 21 25 17 26 16 35 -1
13z"/>
</g>
</svg>
